<svg width="1590" height="384" viewBox="0 0 1590 384" fill="none" xmlns="http://www.w3.org/2000/svg">
<g clip-path="url(#clip0_3317_2)">
<rect width="1590" height="384" fill="white"/>
<rect x="20" y="20" width="328" height="344" rx="50" stroke="black" stroke-width="40"/>
<rect x="100" y="96" width="48" height="200" fill="black"/>
<rect x="148" y="175" width="72" height="48" fill="black"/>
<rect x="220" y="96" width="48" height="52" fill="black"/>
<rect x="220" y="175" width="48" height="73" fill="black"/>
<rect x="220" y="248" width="48" height="48" fill="black"/>
<path d="M451.91 223V63H485.738V129.016H554.41V63H588.16V223H554.41V156.906H485.738V223H451.91ZM643.629 223H607.379L662.613 63H706.207L761.363 223H725.113L685.035 99.5625H683.785L643.629 223ZM641.363 160.109H726.988V186.516H641.363V160.109ZM863.766 109.016C863.141 102.714 860.458 97.8177 855.719 94.3281C850.979 90.8385 844.547 89.0937 836.422 89.0937C830.901 89.0937 826.24 89.875 822.438 91.4375C818.635 92.9479 815.719 95.0573 813.688 97.7656C811.708 100.474 810.719 103.547 810.719 106.984C810.615 109.849 811.214 112.349 812.516 114.484C813.87 116.62 815.719 118.469 818.062 120.031C820.406 121.542 823.115 122.87 826.187 124.016C829.26 125.109 832.542 126.047 836.031 126.828L850.406 130.266C857.385 131.828 863.792 133.911 869.625 136.516C875.458 139.12 880.51 142.323 884.781 146.125C889.052 149.927 892.359 154.406 894.703 159.562C897.099 164.719 898.323 170.63 898.375 177.297C898.323 187.089 895.823 195.578 890.875 202.766C885.979 209.901 878.896 215.448 869.625 219.406C860.406 223.312 849.286 225.266 836.266 225.266C823.349 225.266 812.099 223.286 802.516 219.328C792.984 215.37 785.536 209.51 780.172 201.75C774.859 193.937 772.073 184.276 771.812 172.766H804.547C804.911 178.13 806.448 182.609 809.156 186.203C811.917 189.745 815.589 192.427 820.172 194.25C824.807 196.021 830.042 196.906 835.875 196.906C841.604 196.906 846.578 196.073 850.797 194.406C855.068 192.74 858.375 190.422 860.719 187.453C863.063 184.484 864.234 181.073 864.234 177.219C864.234 173.625 863.167 170.604 861.031 168.156C858.948 165.708 855.875 163.625 851.813 161.906C847.802 160.187 842.88 158.625 837.047 157.219L819.625 152.844C806.135 149.562 795.484 144.432 787.672 137.453C779.859 130.474 775.979 121.073 776.031 109.25C775.979 99.5625 778.557 91.099 783.766 83.8594C789.026 76.6198 796.24 70.9687 805.406 66.9062C814.573 62.8437 824.99 60.8125 836.656 60.8125C848.531 60.8125 858.896 62.8437 867.75 66.9062C876.656 70.9687 883.583 76.6198 888.531 83.8594C893.479 91.099 896.031 99.4844 896.187 109.016H863.766ZM921.129 223V63H1028.94V90.8906H954.957V129.016H1023.39V156.906H954.957V195.109H1029.25V223H921.129ZM1055.84 223V63H1089.66V195.109H1158.26V223H1055.84ZM1321.46 143C1321.46 160.448 1318.15 175.292 1311.54 187.531C1304.98 199.771 1296.02 209.12 1284.66 215.578C1273.36 221.984 1260.65 225.187 1246.54 225.187C1232.32 225.187 1219.56 221.958 1208.26 215.5C1196.96 209.042 1188.02 199.693 1181.46 187.453C1174.9 175.214 1171.62 160.396 1171.62 143C1171.62 125.552 1174.9 110.708 1181.46 98.4688C1188.02 86.2292 1196.96 76.9062 1208.26 70.5C1219.56 64.0417 1232.32 60.8125 1246.54 60.8125C1260.65 60.8125 1273.36 64.0417 1284.66 70.5C1296.02 76.9062 1304.98 86.2292 1311.54 98.4688C1318.15 110.708 1321.46 125.552 1321.46 143ZM1287.16 143C1287.16 131.698 1285.47 122.167 1282.09 114.406C1278.75 106.646 1274.04 100.76 1267.95 96.75C1261.85 92.7396 1254.72 90.7344 1246.54 90.7344C1238.36 90.7344 1231.23 92.7396 1225.13 96.75C1219.04 100.76 1214.3 106.646 1210.91 114.406C1207.58 122.167 1205.91 131.698 1205.91 143C1205.91 154.302 1207.58 163.833 1210.91 171.594C1214.3 179.354 1219.04 185.24 1225.13 189.25C1231.23 193.26 1238.36 195.266 1246.54 195.266C1254.72 195.266 1261.85 193.26 1267.95 189.25C1274.04 185.24 1278.75 179.354 1282.09 171.594C1285.47 163.833 1287.16 154.302 1287.16 143ZM1346.52 223V63H1452.46V90.8906H1380.35V129.016H1445.43V156.906H1380.35V223H1346.52ZM1475.21 223V63H1581.15V90.8906H1509.04V129.016H1574.12V156.906H1509.04V223H1475.21Z" fill="black"/>
<path d="M483.75 279.523C483.386 276.295 481.886 273.795 479.25 272.023C476.614 270.227 473.295 269.33 469.295 269.33C466.432 269.33 463.955 269.784 461.864 270.693C459.773 271.58 458.148 272.807 456.989 274.375C455.852 275.92 455.284 277.682 455.284 279.659C455.284 281.318 455.67 282.75 456.443 283.955C457.239 285.159 458.273 286.17 459.545 286.989C460.841 287.784 462.227 288.455 463.705 289C465.182 289.523 466.602 289.955 467.966 290.295L474.784 292.068C477.011 292.614 479.295 293.352 481.636 294.284C483.977 295.216 486.148 296.443 488.148 297.966C490.148 299.489 491.761 301.375 492.989 303.625C494.239 305.875 494.864 308.568 494.864 311.705C494.864 315.659 493.841 319.17 491.795 322.239C489.773 325.307 486.83 327.727 482.966 329.5C479.125 331.273 474.477 332.159 469.023 332.159C463.795 332.159 459.273 331.33 455.455 329.67C451.636 328.011 448.648 325.659 446.489 322.614C444.33 319.545 443.136 315.909 442.909 311.705H453.477C453.682 314.227 454.5 316.33 455.932 318.011C457.386 319.67 459.239 320.909 461.489 321.727C463.761 322.523 466.25 322.92 468.955 322.92C471.932 322.92 474.58 322.455 476.898 321.523C479.239 320.568 481.08 319.25 482.42 317.568C483.761 315.864 484.432 313.875 484.432 311.602C484.432 309.534 483.841 307.841 482.659 306.523C481.5 305.205 479.92 304.114 477.92 303.25C475.943 302.386 473.705 301.625 471.205 300.966L462.955 298.716C457.364 297.193 452.932 294.955 449.659 292C446.409 289.045 444.784 285.136 444.784 280.273C444.784 276.25 445.875 272.739 448.057 269.739C450.239 266.739 453.193 264.409 456.92 262.75C460.648 261.068 464.852 260.227 469.534 260.227C474.261 260.227 478.432 261.057 482.045 262.716C485.682 264.375 488.545 266.659 490.636 269.568C492.727 272.455 493.818 275.773 493.909 279.523H483.75ZM568.099 296.091C568.099 303.545 566.736 309.955 564.009 315.318C561.281 320.659 557.543 324.773 552.793 327.659C548.065 330.523 542.69 331.955 536.668 331.955C530.622 331.955 525.224 330.523 520.474 327.659C515.747 324.773 512.02 320.648 509.293 315.284C506.565 309.92 505.202 303.523 505.202 296.091C505.202 288.636 506.565 282.239 509.293 276.898C512.02 271.534 515.747 267.42 520.474 264.557C525.224 261.67 530.622 260.227 536.668 260.227C542.69 260.227 548.065 261.67 552.793 264.557C557.543 267.42 561.281 271.534 564.009 276.898C566.736 282.239 568.099 288.636 568.099 296.091ZM557.668 296.091C557.668 290.409 556.747 285.625 554.906 281.739C553.088 277.83 550.588 274.875 547.406 272.875C544.247 270.852 540.668 269.841 536.668 269.841C532.645 269.841 529.054 270.852 525.895 272.875C522.736 274.875 520.236 277.83 518.395 281.739C516.577 285.625 515.668 290.409 515.668 296.091C515.668 301.773 516.577 306.568 518.395 310.477C520.236 314.364 522.736 317.318 525.895 319.341C529.054 321.341 532.645 322.341 536.668 322.341C540.668 322.341 544.247 321.341 547.406 319.341C550.588 317.318 553.088 314.364 554.906 310.477C556.747 306.568 557.668 301.773 557.668 296.091ZM581.233 331V261.182H624.528V270.25H591.767V291.523H621.426V300.557H591.767V331H581.233ZM634.04 270.25V261.182H688.074V270.25H666.29V331H655.79V270.25H634.04ZM713.685 331L694.321 261.182H705.401L719.003 315.25H719.651L733.798 261.182H744.776L758.923 315.284H759.571L773.139 261.182H784.253L764.855 331H754.253L739.56 278.705H739.014L724.321 331H713.685ZM793.756 331H782.574L807.699 261.182H819.869L844.994 331H833.812L814.074 273.864H813.528L793.756 331ZM795.631 303.659H831.903V312.523H795.631V303.659ZM855.077 331V261.182H879.963C885.372 261.182 889.861 262.114 893.429 263.977C897.02 265.841 899.702 268.42 901.474 271.716C903.247 274.989 904.134 278.773 904.134 283.068C904.134 287.341 903.236 291.102 901.44 294.352C899.668 297.58 896.986 300.091 893.395 301.886C889.827 303.682 885.338 304.58 879.929 304.58H861.077V295.511H878.974C882.384 295.511 885.156 295.023 887.293 294.045C889.452 293.068 891.031 291.648 892.031 289.784C893.031 287.92 893.531 285.682 893.531 283.068C893.531 280.432 893.02 278.148 891.997 276.216C890.997 274.284 889.418 272.807 887.259 271.784C885.122 270.739 882.315 270.216 878.838 270.216H865.611V331H855.077ZM889.543 299.5L906.793 331H894.793L877.884 299.5H889.543ZM916.952 331V261.182H960.724V270.25H927.486V291.523H958.44V300.557H927.486V321.932H961.134V331H916.952ZM1038.28 279.523C1037.92 276.295 1036.42 273.795 1033.78 272.023C1031.14 270.227 1027.83 269.33 1023.83 269.33C1020.96 269.33 1018.49 269.784 1016.39 270.693C1014.3 271.58 1012.68 272.807 1011.52 274.375C1010.38 275.92 1009.82 277.682 1009.82 279.659C1009.82 281.318 1010.2 282.75 1010.97 283.955C1011.77 285.159 1012.8 286.17 1014.08 286.989C1015.37 287.784 1016.76 288.455 1018.24 289C1019.71 289.523 1021.13 289.955 1022.5 290.295L1029.32 292.068C1031.54 292.614 1033.83 293.352 1036.17 294.284C1038.51 295.216 1040.68 296.443 1042.68 297.966C1044.68 299.489 1046.29 301.375 1047.52 303.625C1048.77 305.875 1049.39 308.568 1049.39 311.705C1049.39 315.659 1048.37 319.17 1046.33 322.239C1044.3 325.307 1041.36 327.727 1037.5 329.5C1033.66 331.273 1029.01 332.159 1023.55 332.159C1018.33 332.159 1013.8 331.33 1009.99 329.67C1006.17 328.011 1003.18 325.659 1001.02 322.614C998.861 319.545 997.668 315.909 997.44 311.705H1008.01C1008.21 314.227 1009.03 316.33 1010.46 318.011C1011.92 319.67 1013.77 320.909 1016.02 321.727C1018.29 322.523 1020.78 322.92 1023.49 322.92C1026.46 322.92 1029.11 322.455 1031.43 321.523C1033.77 320.568 1035.61 319.25 1036.95 317.568C1038.29 315.864 1038.96 313.875 1038.96 311.602C1038.96 309.534 1038.37 307.841 1037.19 306.523C1036.03 305.205 1034.45 304.114 1032.45 303.25C1030.47 302.386 1028.24 301.625 1025.74 300.966L1017.49 298.716C1011.89 297.193 1007.46 294.955 1004.19 292C1000.94 289.045 999.315 285.136 999.315 280.273C999.315 276.25 1000.41 272.739 1002.59 269.739C1004.77 266.739 1007.72 264.409 1011.45 262.75C1015.18 261.068 1019.38 260.227 1024.07 260.227C1028.79 260.227 1032.96 261.057 1036.58 262.716C1040.21 264.375 1043.08 266.659 1045.17 269.568C1047.26 272.455 1048.35 275.773 1048.44 279.523H1038.28ZM1122.63 296.091C1122.63 303.545 1121.27 309.955 1118.54 315.318C1115.81 320.659 1112.07 324.773 1107.32 327.659C1102.6 330.523 1097.22 331.955 1091.2 331.955C1085.15 331.955 1079.76 330.523 1075.01 327.659C1070.28 324.773 1066.55 320.648 1063.82 315.284C1061.1 309.92 1059.73 303.523 1059.73 296.091C1059.73 288.636 1061.1 282.239 1063.82 276.898C1066.55 271.534 1070.28 267.42 1075.01 264.557C1079.76 261.67 1085.15 260.227 1091.2 260.227C1097.22 260.227 1102.6 261.67 1107.32 264.557C1112.07 267.42 1115.81 271.534 1118.54 276.898C1121.27 282.239 1122.63 288.636 1122.63 296.091ZM1112.2 296.091C1112.2 290.409 1111.28 285.625 1109.44 281.739C1107.62 277.83 1105.12 274.875 1101.94 272.875C1098.78 270.852 1095.2 269.841 1091.2 269.841C1087.18 269.841 1083.59 270.852 1080.43 272.875C1077.27 274.875 1074.77 277.83 1072.93 281.739C1071.11 285.625 1070.2 290.409 1070.2 296.091C1070.2 301.773 1071.11 306.568 1072.93 310.477C1074.77 314.364 1077.27 317.318 1080.43 319.341C1083.59 321.341 1087.18 322.341 1091.2 322.341C1095.2 322.341 1098.78 321.341 1101.94 319.341C1105.12 317.318 1107.62 314.364 1109.44 310.477C1111.28 306.568 1112.2 301.773 1112.2 296.091ZM1135.76 331V261.182H1146.3V321.932H1177.93V331H1135.76ZM1234.85 261.182H1245.42V307.102C1245.42 311.989 1244.27 316.318 1241.97 320.091C1239.68 323.841 1236.45 326.795 1232.29 328.955C1228.13 331.091 1223.26 332.159 1217.67 332.159C1212.1 332.159 1207.24 331.091 1203.08 328.955C1198.92 326.795 1195.69 323.841 1193.39 320.091C1191.1 316.318 1189.95 311.989 1189.95 307.102V261.182H1200.49V306.25C1200.49 309.409 1201.18 312.216 1202.57 314.67C1203.97 317.125 1205.96 319.057 1208.53 320.466C1211.1 321.852 1214.14 322.545 1217.67 322.545C1221.21 322.545 1224.27 321.852 1226.84 320.466C1229.43 319.057 1231.41 317.125 1232.77 314.67C1234.16 312.216 1234.85 309.409 1234.85 306.25V261.182ZM1257.29 270.25V261.182H1311.32V270.25H1289.54V331H1279.04V270.25H1257.29ZM1333.8 261.182V331H1323.26V261.182H1333.8ZM1409.79 296.091C1409.79 303.545 1408.42 309.955 1405.7 315.318C1402.97 320.659 1399.23 324.773 1394.48 327.659C1389.75 330.523 1384.38 331.955 1378.36 331.955C1372.31 331.955 1366.91 330.523 1362.16 327.659C1357.43 324.773 1353.71 320.648 1350.98 315.284C1348.25 309.92 1346.89 303.523 1346.89 296.091C1346.89 288.636 1348.25 282.239 1350.98 276.898C1353.71 271.534 1357.43 267.42 1362.16 264.557C1366.91 261.67 1372.31 260.227 1378.36 260.227C1384.38 260.227 1389.75 261.67 1394.48 264.557C1399.23 267.42 1402.97 271.534 1405.7 276.898C1408.42 282.239 1409.79 288.636 1409.79 296.091ZM1399.36 296.091C1399.36 290.409 1398.43 285.625 1396.59 281.739C1394.78 277.83 1392.28 274.875 1389.09 272.875C1385.93 270.852 1382.36 269.841 1378.36 269.841C1374.33 269.841 1370.74 270.852 1367.58 272.875C1364.42 274.875 1361.92 277.83 1360.08 281.739C1358.26 285.625 1357.36 290.409 1357.36 296.091C1357.36 301.773 1358.26 306.568 1360.08 310.477C1361.92 314.364 1364.42 317.318 1367.58 319.341C1370.74 321.341 1374.33 322.341 1378.36 322.341C1382.36 322.341 1385.93 321.341 1389.09 319.341C1392.28 317.318 1394.78 314.364 1396.59 310.477C1398.43 306.568 1399.36 301.773 1399.36 296.091ZM1479.27 261.182V331H1469.59L1434.1 279.795H1433.45V331H1422.92V261.182H1432.67L1468.19 312.455H1468.84V261.182H1479.27ZM1532.72 279.523C1532.36 276.295 1530.86 273.795 1528.22 272.023C1525.58 270.227 1522.26 269.33 1518.26 269.33C1515.4 269.33 1512.92 269.784 1510.83 270.693C1508.74 271.58 1507.12 272.807 1505.96 274.375C1504.82 275.92 1504.25 277.682 1504.25 279.659C1504.25 281.318 1504.64 282.75 1505.41 283.955C1506.21 285.159 1507.24 286.17 1508.51 286.989C1509.81 287.784 1511.2 288.455 1512.67 289C1514.15 289.523 1515.57 289.955 1516.93 290.295L1523.75 292.068C1525.98 292.614 1528.26 293.352 1530.61 294.284C1532.95 295.216 1535.12 296.443 1537.12 297.966C1539.12 299.489 1540.73 301.375 1541.96 303.625C1543.21 305.875 1543.83 308.568 1543.83 311.705C1543.83 315.659 1542.81 319.17 1540.76 322.239C1538.74 325.307 1535.8 327.727 1531.93 329.5C1528.09 331.273 1523.45 332.159 1517.99 332.159C1512.76 332.159 1508.24 331.33 1504.42 329.67C1500.61 328.011 1497.62 325.659 1495.46 322.614C1493.3 319.545 1492.11 315.909 1491.88 311.705H1502.45C1502.65 314.227 1503.47 316.33 1504.9 318.011C1506.36 319.67 1508.21 320.909 1510.46 321.727C1512.73 322.523 1515.22 322.92 1517.92 322.92C1520.9 322.92 1523.55 322.455 1525.87 321.523C1528.21 320.568 1530.05 319.25 1531.39 317.568C1532.73 315.864 1533.4 313.875 1533.4 311.602C1533.4 309.534 1532.81 307.841 1531.63 306.523C1530.47 305.205 1528.89 304.114 1526.89 303.25C1524.91 302.386 1522.67 301.625 1520.17 300.966L1511.92 298.716C1506.33 297.193 1501.9 294.955 1498.63 292C1495.38 289.045 1493.75 285.136 1493.75 280.273C1493.75 276.25 1494.84 272.739 1497.03 269.739C1499.21 266.739 1502.16 264.409 1505.89 262.75C1509.62 261.068 1513.82 260.227 1518.5 260.227C1523.23 260.227 1527.4 261.057 1531.01 262.716C1534.65 264.375 1537.51 266.659 1539.61 269.568C1541.7 272.455 1542.79 275.773 1542.88 279.523H1532.72Z" fill="black"/>
</g>
<defs>
<clipPath id="clip0_3317_2">
<rect width="1590" height="384" fill="white"/>
</clipPath>
</defs>
</svg>
